<svg width="57" height="57" viewBox="0 0 57 57" fill="none" xmlns="http://www.w3.org/2000/svg">
<path fill-rule="evenodd" clip-rule="evenodd" d="M7.26556 2.35114C4.93019 2.69588 3.09927 4.37179 2.49811 6.71505L2.37598 7.19105V28.4431V49.6951L2.49811 50.1711C3.05464 52.3405 4.60254 53.8884 6.77198 54.4449L7.24798 54.5671H28.5H49.752L50.228 54.4449C52.3974 53.8884 53.9453 52.3405 54.5018 50.1711L54.624 49.6951V28.4431V7.19105L54.5018 6.71505C53.9486 4.55838 52.4326 3.03272 50.256 2.44186L49.808 2.32029L28.696 2.31222C17.0844 2.30774 7.44067 2.32527 7.26556 2.35114ZM7.55564 6.37536C7.17014 6.49262 6.72275 6.87835 6.51208 7.27505C6.41229 7.46293 6.40736 7.78774 6.39319 15.1011L6.37841 22.7311H28.5H50.6215L50.6068 15.1011L50.592 7.47105L50.4706 7.24705C50.326 6.98016 49.9406 6.59992 49.668 6.45516C49.489 6.36013 49.2932 6.3496 47.414 6.33448L45.356 6.3179V11.032C45.356 14.505 45.3384 15.8068 45.2894 15.9766C45.1265 16.5412 44.629 17.0874 44.0724 17.3126L43.76 17.4391H28.5H13.24L12.9276 17.3126C12.371 17.0874 11.8735 16.5412 11.7105 15.9766C11.6615 15.8068 11.644 14.5056 11.644 11.0346V6.32305L9.66998 6.32787C8.5843 6.3305 7.63281 6.35189 7.55564 6.37536ZM15.62 9.87905V13.4351H21.052H26.484V9.87905V6.32305H21.052H15.62V9.87905ZM30.516 9.87905V13.4351H35.948H41.38V9.87905V6.32305H35.948H30.516V9.87905ZM6.39342 38.0611L6.40798 49.4151L6.52933 49.6391C6.67398 49.9059 7.05937 50.2862 7.33198 50.4309C7.52199 50.5319 8.16688 50.5351 28.5 50.5351C48.8331 50.5351 49.478 50.5319 49.668 50.4309C49.9406 50.2862 50.326 49.9059 50.4706 49.6391L50.592 49.4151L50.6065 38.0611L50.621 26.7071H28.5H6.37891L6.39342 38.0611Z" fill="white"/>
</svg>
