<svg width="57" height="57" viewBox="0 0 57 57" fill="none" xmlns="http://www.w3.org/2000/svg">
<path fill-rule="evenodd" clip-rule="evenodd" d="M5.74978 2.34865C5.16038 2.49744 4.64485 2.93357 4.37297 3.51356L4.22401 3.83136L4.20659 8.78736C4.19494 12.1167 4.20978 13.9823 4.2519 14.4714C4.44084 16.6658 5.18659 18.6413 6.47991 20.3735C6.88367 20.9142 7.8509 21.9144 8.39601 22.3549C9.68082 23.3932 11.3578 24.213 12.946 24.5792L13.492 24.7052V38.7425C13.492 54.0022 13.4744 53.1324 13.7933 53.6294C14.5014 54.7325 15.9851 54.9082 16.8956 53.9968C17.2258 53.6663 17.4039 53.3104 17.4708 52.8475C17.5003 52.6438 17.5222 46.6388 17.5229 38.6006L17.524 24.7059L18.154 24.5536C22.3047 23.5501 25.5872 20.2115 26.5038 16.0608C26.7641 14.8823 26.7713 14.6804 26.7531 9.03936L26.736 3.71936L26.596 3.44345C26.1725 2.60871 25.2769 2.16497 24.3815 2.34613C23.7808 2.4677 23.2526 2.88636 22.9675 3.46697L22.816 3.77536L22.7842 9.15136C22.753 14.4326 22.7503 14.537 22.6289 15.074C22.0582 17.6006 20.3005 19.6044 17.9212 20.4409C17.7547 20.4995 17.5979 20.5474 17.5727 20.5474C17.5475 20.5474 17.5199 16.7989 17.5114 12.2174L17.496 3.88736L17.365 3.56273C17.199 3.15157 16.7414 2.67305 16.3368 2.48786C15.4181 2.06725 14.3497 2.39053 13.7933 3.25736C13.4809 3.74428 13.492 3.40973 13.492 12.3271C13.492 18.3962 13.4755 20.5474 13.4288 20.5474C13.2887 20.5474 12.5393 20.2448 12.0806 20.003C10.4692 19.154 9.1986 17.6546 8.60304 15.8994C8.24979 14.8583 8.2657 15.141 8.22941 9.26336C8.20538 5.37869 8.178 3.83556 8.13062 3.70065C7.9428 3.16529 7.53086 2.7122 7.01897 2.47784C6.68291 2.32401 6.08752 2.26341 5.74978 2.34865ZM40.82 2.3487C38.7022 2.60552 36.7007 3.58748 35.0602 5.17452C34.0227 6.17832 33.2283 7.26242 32.5567 8.59136C29.543 14.5547 30.9097 22.2999 35.6774 26.275C36.7412 27.1619 38.0566 27.8601 39.3882 28.2445L39.84 28.3749L39.868 40.7151L39.896 53.0554L40.0529 53.3914C40.5341 54.4215 41.6974 54.8638 42.7085 54.4009C43.1175 54.2136 43.5742 53.7373 43.741 53.324L43.872 52.9994L43.887 40.6654C43.9012 28.9024 43.9066 28.3314 44.0012 28.3314C44.2129 28.3314 45.2451 27.9704 45.832 27.6912C47.6978 26.8033 49.1781 25.492 50.4196 23.6274C53.2603 19.3607 53.5731 13.2996 51.195 8.60121C49.5373 5.32605 46.8579 3.1364 43.7103 2.48461C42.9435 2.3258 41.5493 2.26028 40.82 2.3487ZM40.736 6.43177C37.6249 7.15994 35.2738 10.5291 35.0038 14.646C34.7846 17.9886 35.9485 21.1709 38.0745 23.0418C40.4619 25.1428 43.5506 25.0755 45.8533 22.8724C47.7293 21.0775 48.7748 18.4097 48.7709 15.4269C48.7662 11.8206 47.1892 8.62602 44.656 7.09173C44.2853 6.86723 43.6475 6.60056 43.1383 6.45731C42.6237 6.3125 41.3054 6.29849 40.736 6.43177Z" fill="white"/>
</svg>
