<svg width="57" height="57" viewBox="0 0 57 57" fill="none" xmlns="http://www.w3.org/2000/svg">
<path fill-rule="evenodd" clip-rule="evenodd" d="M27.9373 5.16473C27.3745 5.32377 26.9606 5.72327 26.2574 6.78593C24.5274 9.40062 24.0011 12.3142 24.6129 15.8898C24.907 17.609 25.3072 18.9513 26.6526 22.7318C27.6264 25.4681 27.8153 26.045 28.1086 27.1764C28.5212 28.7687 28.5827 29.2157 28.5834 30.6278C28.5841 31.9774 28.5615 32.1512 28.2642 33.0918C28.0453 33.7841 27.6451 34.5602 27.15 35.2522C26.9314 35.5578 26.7078 35.9098 26.6531 36.0346C26.2312 36.9965 26.7022 38.1561 27.7062 38.6268C27.9738 38.7522 28.0998 38.7756 28.5035 38.7746C29.3817 38.7725 29.8616 38.4261 30.6728 37.209C32.4312 34.5708 32.9876 31.682 32.417 28.1528C32.1436 26.4619 31.6648 24.8485 30.3104 21.0539C29.0972 17.655 28.7247 16.3731 28.4969 14.814C28.3345 13.7027 28.3504 12.3023 28.5347 11.4819C28.7661 10.4519 29.1895 9.54269 29.8936 8.56376C30.3557 7.92133 30.4829 7.60862 30.4856 7.10776C30.4886 6.54529 30.3494 6.18225 29.9696 5.76258C29.5674 5.31817 29.1868 5.13432 28.6198 5.11063C28.3822 5.10072 28.0787 5.12474 27.9373 5.16473ZM17.132 8.87405C16.6364 9.01187 16.2801 9.28795 15.8507 9.86704C14.6595 11.473 13.9524 12.968 13.6593 14.4998C13.5499 15.0712 13.4975 16.1182 13.5476 16.7298C13.6944 18.5231 14.2613 20.0199 15.8725 22.868C17.0171 24.8914 17.4157 25.7511 17.6452 26.6919C17.8117 27.374 17.8113 28.3512 17.6442 28.9758C17.47 29.6272 16.8771 30.7709 16.3241 31.5226C15.7516 32.3009 15.6516 32.568 15.6877 33.2227C15.7072 33.5771 15.7473 33.7471 15.8664 33.9797C16.2698 34.7679 17.1601 35.2159 17.9963 35.0514C18.6377 34.9253 18.9562 34.6881 19.5322 33.9081C20.6261 32.4266 21.285 31.0361 21.6241 29.4937C21.7327 28.9999 21.7498 28.7634 21.7466 27.7998C21.7437 26.8653 21.7225 26.5835 21.619 26.0985C21.29 24.5572 20.8309 23.5001 19.354 20.8838C17.8651 18.246 17.4682 17.1314 17.5401 15.7901C17.599 14.692 18.0391 13.653 18.9985 12.3464C19.5514 11.5937 19.6208 11.4217 19.6208 10.8038C19.6209 10.3381 19.6018 10.2324 19.4677 9.9567C19.0504 9.09867 18.0282 8.62485 17.132 8.87405ZM38.86 8.86375C38.2868 9.03561 38.0251 9.23895 37.5151 9.90899C36.6044 11.1053 35.8773 12.5175 35.5348 13.7554C35.2727 14.7027 35.2011 15.3321 35.2398 16.3478C35.3183 18.4026 35.7721 19.6706 37.5745 22.8718C38.6849 24.844 39.0559 25.6365 39.3188 26.5987C39.4258 26.9904 39.4477 27.2065 39.446 27.8558C39.4442 28.5524 39.4267 28.6947 39.2891 29.1332C39.0738 29.8194 38.6073 30.7032 38.0419 31.4958C37.4201 32.3674 37.3866 32.4469 37.3808 33.0638C37.3767 33.4985 37.3965 33.6114 37.525 33.8856C38.0722 35.0529 39.4036 35.4287 40.4974 34.7245C40.8835 34.4759 41.9258 33.0024 42.4425 31.9746C43.1487 30.5701 43.4602 29.2956 43.4628 27.7998C43.4644 26.8619 43.3762 26.2389 43.1097 25.3078C42.768 24.1134 42.3705 23.2456 41.2374 21.2198C39.6664 18.4109 39.3284 17.5892 39.2221 16.3198C39.1337 15.2642 39.5608 13.969 40.395 12.7638C40.5335 12.5636 40.7734 12.216 40.928 11.9913C41.2716 11.4919 41.3435 11.2426 41.3111 10.6638C41.2805 10.1176 41.1279 9.76445 40.7651 9.4004C40.2653 8.89886 39.4804 8.67777 38.86 8.86375ZM9.348 26.5348C8.57386 26.7886 7.12777 27.7766 6.11955 28.7405C4.00028 30.7665 2.61143 33.6597 2.37035 36.5507C2.32583 37.0846 2.42433 38.1413 2.58298 38.8318C3.24865 41.7292 5.32435 44.4237 8.536 46.5596C12.9275 49.48 18.7814 51.2311 25.672 51.6857C26.8304 51.7621 30.1134 51.7614 31.3 51.6845C38.5173 51.2167 44.778 49.2508 49.1021 46.0945C50.0134 45.4293 50.6016 44.9174 51.3772 44.1146C53.0062 42.4287 54.0217 40.6252 54.4465 38.6638C54.6808 37.5817 54.6911 36.6074 54.4805 35.4377C53.8897 32.1569 51.9466 29.2108 49.1553 27.3637C47.9086 26.5387 47.3831 26.3455 46.7428 26.477C45.5207 26.728 44.8135 27.8952 45.1846 29.0491C45.3623 29.6017 45.6592 29.9179 46.4364 30.3821C46.7815 30.5883 47.2062 30.866 47.3801 30.9991C49.0131 32.2499 50.1542 34.1093 50.5386 36.1458C51.051 38.86 48.8353 41.8942 44.6968 44.1458C37.3035 48.1681 25.5458 48.9228 16.516 45.9548C13.8138 45.0666 11.3198 43.7825 9.60174 42.395C9.00702 41.9147 8.13118 41.0175 7.70855 40.4558C7.24302 39.837 6.7715 38.9319 6.56828 38.2671C6.43304 37.8247 6.41568 37.6784 6.41596 36.9838C6.41635 36.0769 6.53361 35.5368 6.95602 34.497C7.66285 32.757 8.83448 31.4148 10.5299 30.4031C11.2473 29.975 11.527 29.7068 11.7484 29.2345C11.8745 28.9656 11.8957 28.8463 11.8937 28.4158C11.8916 27.9782 11.871 27.8727 11.7377 27.6157C11.4369 27.036 10.9879 26.6644 10.3988 26.5076C10.0107 26.4042 9.72337 26.4117 9.348 26.5348Z" fill="white"/>
</svg>
