<svg width="57" height="57" viewBox="0 0 57 57" fill="none" xmlns="http://www.w3.org/2000/svg">
<path fill-rule="evenodd" clip-rule="evenodd" d="M27.992 2.364C27.4581 2.51537 26.959 2.91896 26.7155 3.39625C26.5078 3.80337 26.484 4.17941 26.484 7.0526V9.83373L25.854 9.93301C21.1048 10.6818 16.8673 13.4741 14.2465 17.5819C13.7518 18.3572 12.9453 20.0084 12.6266 20.8981C12.0189 22.595 11.6431 24.6797 11.6451 26.343C11.6457 26.9245 11.7024 27.1908 11.9088 27.5813C12.0778 27.9012 12.5407 28.3004 12.9207 28.4539L13.24 28.583H28.5H43.76L44.0724 28.4565C44.4623 28.2987 44.8139 28.0018 45.0462 27.634C45.3348 27.1773 45.3776 26.9282 45.3386 25.9327C45.2422 23.4734 44.6856 21.3002 43.5871 19.0938C42.6315 17.1748 41.5241 15.6954 39.9142 14.1872C37.5669 11.9883 34.3826 10.4433 31.146 9.93301L30.516 9.83373V7.0526C30.516 5.29201 30.4936 4.14961 30.4551 3.93928C30.2901 3.0379 29.5447 2.3757 28.6282 2.31612C28.4075 2.30178 28.1406 2.32189 27.992 2.364ZM27.3984 13.7721C23.4147 14.1593 19.9121 16.2539 17.7473 19.5434C16.9282 20.7882 16.221 22.4865 15.9303 23.907C15.883 24.138 15.8312 24.3836 15.8151 24.453L15.7859 24.579H28.5027C40.5874 24.579 41.2182 24.5741 41.1914 24.481C41.176 24.427 41.1214 24.1688 41.0701 23.907C40.7396 22.221 39.7268 20.0585 38.5933 18.6194C38.1889 18.106 36.9851 16.903 36.4682 16.4959C34.7152 15.1148 32.5179 14.1781 30.2735 13.8549C29.5235 13.7469 28.0837 13.7055 27.3984 13.7721ZM20.576 35.8017C20.422 35.8397 20.2095 35.9162 20.1039 35.9716C19.8323 36.114 19.4248 36.5503 19.26 36.8751L19.12 37.151V39.587V42.023L19.26 42.2989C19.8622 43.4858 21.3724 43.8059 22.3729 42.9587C22.6119 42.7564 22.8939 42.3246 22.9796 42.0299C23.1034 41.6038 23.1094 37.6474 22.9869 37.187C22.8093 36.5201 22.2621 35.9859 21.5722 35.8062C21.196 35.7082 20.9585 35.7072 20.576 35.8017ZM35.4032 35.8092C35.1401 35.8801 34.8478 36.0364 34.5996 36.2388C34.3914 36.4089 34.1021 36.8632 34.018 37.1523C33.9397 37.4218 33.9295 37.7725 33.9436 39.7158L33.96 41.967L34.1115 42.2754C34.6062 43.2827 35.7753 43.713 36.7746 43.2555C37.1285 43.0935 37.5475 42.6783 37.74 42.2989L37.88 42.023V39.587V37.151L37.74 36.8746C37.574 36.5468 37.1447 36.1 36.8549 35.9534C36.616 35.8326 36.1353 35.7213 35.8752 35.7267C35.7766 35.7287 35.5642 35.7658 35.4032 35.8092ZM15.0458 46.9244C14.4567 47.0727 13.9413 47.5044 13.6768 48.071L13.52 48.407L13.5029 50.5533C13.4918 51.9527 13.5071 52.802 13.5469 52.9939C13.8678 54.5394 15.781 55.1121 16.8956 53.9964C17.2257 53.6659 17.4039 53.3101 17.4708 52.8472C17.4989 52.6535 17.5218 51.7012 17.5218 50.731C17.5218 48.816 17.4869 48.4013 17.2923 47.9988C17.1212 47.6448 16.6924 47.2263 16.3315 47.0611C15.9964 46.9076 15.3747 46.8415 15.0458 46.9244ZM28.0713 46.9221C27.3106 47.0829 26.6882 47.7326 26.5449 48.5153C26.5089 48.7119 26.484 49.6165 26.484 50.731C26.484 51.8454 26.5089 52.7501 26.5449 52.9467C26.6638 53.5962 27.0832 54.1271 27.7062 54.4168C27.9711 54.54 28.1032 54.5646 28.5 54.5646C28.8968 54.5646 29.0289 54.54 29.2938 54.4168C29.9167 54.1271 30.3362 53.5962 30.4551 52.9467C30.4911 52.7501 30.516 51.8454 30.516 50.731C30.516 49.6165 30.4911 48.7119 30.4551 48.5153C30.2924 47.6266 29.5643 46.9688 28.668 46.9006C28.4678 46.8854 28.1993 46.8951 28.0713 46.9221ZM41.0633 46.9219C40.5263 47.036 39.9527 47.4919 39.7072 47.9998C39.5014 48.4253 39.4648 48.9329 39.4879 51.0385C39.5086 52.9235 39.5144 53.0115 39.6377 53.3236C39.8008 53.7363 40.2556 54.2119 40.6675 54.4005C41.6786 54.8634 42.8419 54.4211 43.3231 53.391L43.48 53.055V50.731V48.407L43.3218 48.0648C42.9304 47.2178 41.9664 46.73 41.0633 46.9219Z" fill="white"/>
</svg>
